<?xml version="1.0" standalone="no"?>
<!DOCTYPE svg PUBLIC "-//W3C//DTD SVG 20010904//EN"
 "http://www.w3.org/TR/2001/REC-SVG-20010904/DTD/svg10.dtd">
<svg version="1.0" xmlns="http://www.w3.org/2000/svg"
 width="1024.000000pt" height="1024.000000pt" viewBox="0 0 1024.000000 1024.000000"
 preserveAspectRatio="xMidYMid meet">
<metadata>
Created by potrace 1.16, written by Peter Selinger 2001-2019
</metadata>
<g transform="translate(0.000000,1024.000000) scale(0.100000,-0.100000)"
fill="#000000" stroke="none">
<path d="M0 5120 l0 -5120 5120 0 5120 0 0 5120 0 5120 -5120 0 -5120 0 0
-5120z m7316 2375 c207 -60 369 -237 409 -448 22 -117 22 -3880 0 -3973 -48
-206 -191 -361 -395 -430 -53 -18 -135 -19 -2039 -22 -2189 -3 -2085 -5 -2218
59 -82 41 -195 148 -241 230 -18 32 -41 92 -52 135 -20 76 -20 115 -20 2019 0
1901 0 1943 20 2019 47 185 177 331 355 398 60 23 61 23 785 28 399 3 1313 4
2031 4 1200 -1 1310 -3 1365 -19z"/>
<path d="M3394 6996 c-70 -31 -98 -106 -66 -178 31 -70 99 -95 169 -61 97 46
97 184 1 234 -43 22 -62 23 -104 5z"/>
<path d="M6363 6990 c-74 -38 -94 -128 -44 -199 53 -75 182 -59 217 26 50 120
-60 230 -173 173z"/>
<path d="M6991 6993 c-95 -48 -93 -194 3 -239 103 -50 220 70 170 172 -36 71
-109 100 -173 67z"/>
<path d="M5098 6464 c-168 -30 -322 -105 -442 -215 -339 -311 -389 -788 -121
-1164 86 -121 241 -242 384 -300 168 -68 370 -79 566 -30 158 40 361 176 464
312 118 156 170 303 178 503 5 118 3 147 -17 225 -12 50 -35 121 -51 158 -89
212 -297 401 -522 475 -155 51 -293 63 -439 36z m328 -175 c130 -34 226 -90
330 -194 154 -152 211 -300 201 -523 -5 -140 -26 -212 -93 -327 -191 -326
-591 -445 -934 -278 -78 38 -109 60 -176 127 -45 45 -99 112 -122 151 -175
300 -108 677 161 903 66 56 213 128 297 146 100 22 242 20 336 -5z"/>
<path d="M3509 5890 c-68 -57 -115 -99 -343 -308 l-79 -72 -61 57 -61 58 -3
-1215 c-2 -872 0 -1232 8 -1275 7 -33 24 -82 38 -108 36 -67 129 -150 199
-179 l58 -23 1985 0 1985 0 67 32 c120 57 201 157 227 281 12 59 16 2482 4
2482 -3 0 -32 -22 -64 -50 -32 -27 -62 -50 -68 -50 -6 0 -74 57 -152 128 -221
199 -332 293 -342 289 -6 -2 -35 -66 -67 -142 -73 -181 -113 -266 -184 -395
-118 -213 -266 -435 -397 -596 -69 -84 -208 -234 -218 -234 -4 0 -47 36 -96
80 -50 45 -97 85 -106 90 -12 7 -26 -9 -69 -82 -114 -192 -314 -422 -468 -538
l-53 -39 -82 67 c-186 153 -350 343 -447 520 -25 45 -48 82 -51 82 -4 0 -52
-40 -107 -90 -55 -49 -105 -90 -110 -90 -12 0 -138 136 -236 254 -137 165
-319 452 -440 694 -73 147 -166 362 -166 386 0 7 -6 20 -13 30 -12 16 -19 13
-88 -44z m3544 -422 c89 -173 89 -316 1 -506 -57 -125 -116 -201 -272 -352
-149 -145 -149 -145 -188 -240 -32 -79 -50 -107 -107 -166 -37 -40 -101 -95
-142 -124 -73 -49 -249 -140 -275 -140 -6 0 10 17 37 38 88 70 274 254 298
296 13 23 33 73 44 111 25 85 62 132 170 214 77 59 199 180 238 236 94 136
144 319 144 533 0 68 -3 140 -7 160 -10 54 12 31 59 -60z m-3472 -29 c57 -113
158 -266 215 -322 26 -26 45 -50 42 -52 -10 -10 -125 56 -175 100 -63 56 -109
143 -118 223 -3 31 -8 74 -10 95 -3 20 -3 37 0 37 3 0 23 -37 46 -81z m3746
-690 c-108 -215 -128 -282 -137 -464 -9 -166 -23 -223 -81 -321 -47 -81 -235
-266 -346 -342 -50 -34 -94 -62 -96 -62 -3 0 10 26 29 57 33 55 94 200 94 224
0 6 -30 -6 -67 -26 -254 -139 -407 -278 -511 -463 -35 -62 -85 -136 -112 -165
-94 -102 -237 -165 -400 -174 l-95 -6 82 43 c161 83 251 178 317 337 87 206
148 261 495 453 306 169 391 227 441 307 27 42 37 78 75 263 26 129 104 260
218 366 58 55 157 128 163 121 2 -2 -29 -68 -69 -148z m-4148 109 c59 -28 117
-88 143 -146 25 -58 29 -183 9 -292 -14 -77 -31 -114 -31 -69 0 34 -47 202
-74 263 -24 53 -90 159 -147 235 l-33 44 44 -7 c25 -4 65 -16 89 -28z m746
-200 c64 -86 83 -126 110 -234 29 -117 56 -165 160 -289 46 -55 83 -101 81
-102 -2 -2 -30 14 -62 35 -32 22 -86 56 -118 78 -72 46 -128 100 -150 142 -9
17 -21 66 -27 109 -6 43 -19 126 -30 184 -19 106 -23 139 -15 139 2 0 25 -28
51 -62z m1971 -449 c-19 -72 -58 -132 -123 -188 -49 -43 -185 -115 -238 -127
-26 -6 -21 0 30 39 122 92 200 192 292 373 l48 94 3 -66 c2 -36 -4 -91 -12
-125z m-1265 47 c100 -155 265 -303 425 -381 137 -66 219 -121 294 -197 70
-69 156 -176 148 -183 -5 -5 -148 74 -298 166 -68 41 -140 76 -205 97 -120 40
-179 76 -244 148 -94 106 -154 243 -184 424 -5 30 -4 32 6 16 7 -10 33 -51 58
-90z m-890 -232 c210 -61 416 -195 499 -324 46 -72 67 -135 85 -252 10 -67 25
-122 43 -158 40 -81 160 -196 257 -247 l80 -42 -47 -1 c-124 -1 -232 45 -333
141 -95 90 -131 159 -155 292 -27 151 -62 218 -179 341 -40 42 -200 178 -287
243 -35 27 -32 27 37 7z m-389 -90 c171 -54 297 -144 350 -249 14 -28 33 -84
42 -125 29 -125 64 -222 105 -293 22 -37 36 -67 31 -67 -15 0 -125 96 -157
137 -17 21 -56 90 -88 153 -31 63 -77 142 -100 175 -49 69 -158 175 -248 242
-34 25 -64 47 -66 49 -13 13 59 0 131 -22z"/>
</g>
</svg>
